# xmcd
#
# Track frame offsets: 
#        150
#        10494
#        23445
#        37749
#        50369
#        61804
#        75084
#        89760
#        101986
#        116972
#
# Disc length: 1738 seconds
#
# Revision: 3
# Processed by: cddbd v1.5.2PL0 Copyright (c) Steve Scherf et al.
# Submitted via: ExactAudioCopy v1.3
#
DISCID=7206c80a
DTITLE=Johnny Cash - Rainbow
DYEAR=1985
DGENRE=Country
TTITLE0=I'm Leaving Now
TTITLE1=Here Comes That Rainbow Again
TTITLE2=They're All The Same
TTITLE3=Easy Street
TTITLE4=Have You Ever Seen The Rain
TTITLE5=You Beat All I Ever Saw
TTITLE6=Unwed Fathers
TTITLE7=Love Me Like You Used To
TTITLE8=Casey's Last Ride
TTITLE9=Borderline (A Musical WhoDunIt)
EXTD=(c)1985 CBS Inc. * CBS 26689
EXTT0=
EXTT1=
EXTT2=
EXTT3=
EXTT4=
EXTT5=
EXTT6=
EXTT7=
EXTT8=
EXTT9=
PLAYORDER=
